<mxfile host="app.diagrams.net" agent="Mozilla/5.0 (Windows NT 10.0; Win64; x64) AppleWebKit/537.36 (KHTML, like Gecko) Chrome/131.0.0.0 Safari/537.36" version="25.0.1">
  <diagram name="Página-1" id="4fPj8FKTWWKvgSlPfXeu">
    <mxGraphModel dx="1120" dy="1603" grid="1" gridSize="10" guides="1" tooltips="1" connect="1" arrows="1" fold="1" page="1" pageScale="1" pageWidth="827" pageHeight="1169" math="0" shadow="0">
      <root>
        <mxCell id="0" />
        <mxCell id="1" parent="0" />
        <mxCell id="tzBEl5uezkZAkphJzdvv-1" value="&lt;font style=&quot;font-size: 13px;&quot;&gt;Selecionar a quantidade de estrelas&lt;/font&gt;" style="swimlane;whiteSpace=wrap;html=1;" parent="1" vertex="1">
          <mxGeometry x="240" y="220" width="388" height="110" as="geometry" />
        </mxCell>
        <mxCell id="tzBEl5uezkZAkphJzdvv-2" value="&lt;div&gt;&lt;font style=&quot;font-size: 13px;&quot;&gt;d: mostrar o formato de cinco estrelas a serem preenchidas&lt;/font&gt;&lt;/div&gt;&lt;font style=&quot;font-size: 13px;&quot;&gt;d+u: escolher um d&lt;/font&gt;" style="text;html=1;align=left;verticalAlign=middle;resizable=0;points=[];autosize=1;strokeColor=none;fillColor=none;rotation=0;" parent="tzBEl5uezkZAkphJzdvv-1" vertex="1">
          <mxGeometry x="18" y="40" width="370" height="40" as="geometry" />
        </mxCell>
        <mxCell id="tzBEl5uezkZAkphJzdvv-5" value="" style="ellipse;whiteSpace=wrap;html=1;aspect=fixed;fillColor=#000000;" parent="1" vertex="1">
          <mxGeometry x="414" y="-110" width="20" height="20" as="geometry" />
        </mxCell>
        <mxCell id="tzBEl5uezkZAkphJzdvv-16" value="" style="edgeStyle=orthogonalEdgeStyle;rounded=0;orthogonalLoop=1;jettySize=auto;html=1;entryX=0.5;entryY=0;entryDx=0;entryDy=0;" parent="1" source="tzBEl5uezkZAkphJzdvv-10" target="tzBEl5uezkZAkphJzdvv-19" edge="1">
          <mxGeometry relative="1" as="geometry">
            <mxPoint x="68.99999999999989" y="353.75" as="targetPoint" />
          </mxGeometry>
        </mxCell>
        <mxCell id="tzBEl5uezkZAkphJzdvv-10" value="" style="whiteSpace=wrap;html=1;fontStyle=1;startSize=23;fillColor=#000000;" parent="1" vertex="1">
          <mxGeometry x="406" y="390" width="38" height="37.5" as="geometry" />
        </mxCell>
        <mxCell id="tzBEl5uezkZAkphJzdvv-19" value="&lt;font style=&quot;font-size: 13px;&quot;&gt;Selecionar um horário disponível&lt;/font&gt;" style="swimlane;whiteSpace=wrap;html=1;startSize=40;" parent="1" vertex="1">
          <mxGeometry x="162.12" y="480" width="523.75" height="120" as="geometry" />
        </mxCell>
        <mxCell id="tzBEl5uezkZAkphJzdvv-34" value="&lt;div&gt;&lt;font style=&quot;font-size: 13px;&quot;&gt;selecionar um horário {d: apresentar apenas os horários disponíveis para aquele dia&lt;/font&gt;&lt;/div&gt;&lt;div&gt;&lt;font style=&quot;font-size: 13px;&quot;&gt;d+u: escolher um horário dentre os listados}&lt;/font&gt;&lt;/div&gt;" style="text;html=1;align=left;verticalAlign=middle;resizable=0;points=[];autosize=1;strokeColor=none;fillColor=none;" parent="tzBEl5uezkZAkphJzdvv-19" vertex="1">
          <mxGeometry x="7.5" y="50" width="510" height="40" as="geometry" />
        </mxCell>
        <mxCell id="tzBEl5uezkZAkphJzdvv-75" value="" style="endArrow=classic;html=1;rounded=0;dashed=1;dashPattern=8 8;exitX=0.5;exitY=1;exitDx=0;exitDy=0;entryX=0;entryY=0.75;entryDx=0;entryDy=0;" parent="1" source="tzBEl5uezkZAkphJzdvv-84" target="tzBEl5uezkZAkphJzdvv-19" edge="1">
          <mxGeometry relative="1" as="geometry">
            <mxPoint x="408.5000000000002" y="745" as="sourcePoint" />
            <mxPoint x="120" y="540" as="targetPoint" />
            <Array as="points">
              <mxPoint x="120" y="720" />
              <mxPoint x="120" y="570" />
            </Array>
          </mxGeometry>
        </mxCell>
        <mxCell id="tzBEl5uezkZAkphJzdvv-76" value="u: editar o horário" style="edgeLabel;resizable=0;html=1;;align=center;verticalAlign=middle;fontSize=12;" parent="tzBEl5uezkZAkphJzdvv-75" connectable="0" vertex="1">
          <mxGeometry relative="1" as="geometry">
            <mxPoint x="-45" y="-91" as="offset" />
          </mxGeometry>
        </mxCell>
        <mxCell id="tzBEl5uezkZAkphJzdvv-84" value="" style="whiteSpace=wrap;html=1;fontStyle=1;startSize=23;fillColor=#000000;direction=south;" parent="1" vertex="1">
          <mxGeometry x="405.25" y="700" width="37.5" height="38" as="geometry" />
        </mxCell>
        <mxCell id="tzBEl5uezkZAkphJzdvv-90" value="" style="endArrow=classic;html=1;rounded=0;exitX=0.5;exitY=1;exitDx=0;exitDy=0;" parent="1" source="tzBEl5uezkZAkphJzdvv-1" target="tzBEl5uezkZAkphJzdvv-10" edge="1">
          <mxGeometry relative="1" as="geometry">
            <mxPoint x="230" y="340" as="sourcePoint" />
            <mxPoint x="330" y="340" as="targetPoint" />
          </mxGeometry>
        </mxCell>
        <mxCell id="tzBEl5uezkZAkphJzdvv-91" value="u: escolher um dia" style="edgeLabel;resizable=0;html=1;;align=center;verticalAlign=middle;fontSize=12;" parent="tzBEl5uezkZAkphJzdvv-90" connectable="0" vertex="1">
          <mxGeometry relative="1" as="geometry" />
        </mxCell>
        <mxCell id="tzBEl5uezkZAkphJzdvv-92" value="" style="endArrow=classic;html=1;rounded=0;exitX=0.5;exitY=1;exitDx=0;exitDy=0;entryX=0;entryY=0.5;entryDx=0;entryDy=0;" parent="1" source="tzBEl5uezkZAkphJzdvv-19" target="tzBEl5uezkZAkphJzdvv-84" edge="1">
          <mxGeometry relative="1" as="geometry">
            <mxPoint x="230" y="540" as="sourcePoint" />
            <mxPoint x="330" y="540" as="targetPoint" />
          </mxGeometry>
        </mxCell>
        <mxCell id="tzBEl5uezkZAkphJzdvv-93" value="&lt;div&gt;&lt;br&gt;&lt;/div&gt;&lt;div&gt;&lt;div&gt;d: apresentar o dia e horário do agendamento&lt;/div&gt;u: confirmar agendamento&lt;/div&gt;" style="edgeLabel;resizable=0;html=1;;align=center;verticalAlign=middle;fontSize=12;" parent="tzBEl5uezkZAkphJzdvv-92" connectable="0" vertex="1">
          <mxGeometry relative="1" as="geometry" />
        </mxCell>
        <mxCell id="tzBEl5uezkZAkphJzdvv-95" value="" style="endArrow=classic;html=1;rounded=0;dashed=1;dashPattern=8 8;exitX=0.5;exitY=0;exitDx=0;exitDy=0;entryX=1;entryY=0.75;entryDx=0;entryDy=0;" parent="1" source="tzBEl5uezkZAkphJzdvv-84" target="tzBEl5uezkZAkphJzdvv-1" edge="1">
          <mxGeometry relative="1" as="geometry">
            <mxPoint x="379.9999999999998" y="708.9999999999998" as="sourcePoint" />
            <mxPoint x="746.25" y="530" as="targetPoint" />
            <Array as="points">
              <mxPoint x="790" y="720" />
              <mxPoint x="792" y="300" />
            </Array>
          </mxGeometry>
        </mxCell>
        <mxCell id="tzBEl5uezkZAkphJzdvv-96" value="u: editar o dia" style="edgeLabel;resizable=0;html=1;;align=center;verticalAlign=middle;fontSize=12;" parent="tzBEl5uezkZAkphJzdvv-95" connectable="0" vertex="1">
          <mxGeometry relative="1" as="geometry">
            <mxPoint x="-1" y="-130" as="offset" />
          </mxGeometry>
        </mxCell>
        <mxCell id="tzBEl5uezkZAkphJzdvv-98" value="" style="endArrow=none;html=1;rounded=0;dashed=1;dashPattern=8 8;exitX=1;exitY=0.5;exitDx=0;exitDy=0;" parent="1" source="tzBEl5uezkZAkphJzdvv-19" edge="1">
          <mxGeometry width="50" height="50" relative="1" as="geometry">
            <mxPoint x="670" y="570" as="sourcePoint" />
            <mxPoint x="790" y="540" as="targetPoint" />
          </mxGeometry>
        </mxCell>
        <mxCell id="tzBEl5uezkZAkphJzdvv-101" value="" style="ellipse;html=1;shape=endState;fillColor=#000000;strokeColor=#000000;" parent="1" vertex="1">
          <mxGeometry x="409" y="790" width="30" height="30" as="geometry" />
        </mxCell>
        <mxCell id="tzBEl5uezkZAkphJzdvv-102" value="" style="endArrow=classic;html=1;rounded=0;exitX=1;exitY=0.5;exitDx=0;exitDy=0;entryX=0.5;entryY=0;entryDx=0;entryDy=0;" parent="1" source="tzBEl5uezkZAkphJzdvv-84" target="tzBEl5uezkZAkphJzdvv-101" edge="1">
          <mxGeometry relative="1" as="geometry">
            <mxPoint x="420" y="790" as="sourcePoint" />
            <mxPoint x="520" y="790" as="targetPoint" />
          </mxGeometry>
        </mxCell>
        <mxCell id="tzBEl5uezkZAkphJzdvv-103" value="u: sair" style="edgeLabel;resizable=0;html=1;;align=center;verticalAlign=middle;fontSize=12;" parent="tzBEl5uezkZAkphJzdvv-102" connectable="0" vertex="1">
          <mxGeometry relative="1" as="geometry" />
        </mxCell>
        <mxCell id="tzBEl5uezkZAkphJzdvv-104" value="" style="rounded=1;whiteSpace=wrap;html=1;fillColor=#bac8d3;strokeColor=#23445d;" parent="1" vertex="1">
          <mxGeometry x="10" y="-4" width="100" height="30" as="geometry" />
        </mxCell>
        <mxCell id="tzBEl5uezkZAkphJzdvv-108" value="" style="endArrow=classic;html=1;rounded=0;exitX=0.5;exitY=1;exitDx=0;exitDy=0;entryX=0.5;entryY=0;entryDx=0;entryDy=0;" parent="1" source="tzBEl5uezkZAkphJzdvv-104" target="tzBEl5uezkZAkphJzdvv-110" edge="1">
          <mxGeometry relative="1" as="geometry">
            <mxPoint x="70" y="230" as="sourcePoint" />
            <mxPoint x="112" y="240" as="targetPoint" />
          </mxGeometry>
        </mxCell>
        <mxCell id="tzBEl5uezkZAkphJzdvv-109" value="u: sair" style="edgeLabel;resizable=0;html=1;;align=center;verticalAlign=middle;fontSize=12;" parent="tzBEl5uezkZAkphJzdvv-108" connectable="0" vertex="1">
          <mxGeometry relative="1" as="geometry" />
        </mxCell>
        <mxCell id="tzBEl5uezkZAkphJzdvv-110" value="" style="ellipse;html=1;shape=endState;fillColor=#000000;strokeColor=#000000;" parent="1" vertex="1">
          <mxGeometry x="45.00000000000001" y="99" width="30" height="30" as="geometry" />
        </mxCell>
        <mxCell id="tzBEl5uezkZAkphJzdvv-112" value="" style="endArrow=classic;html=1;rounded=0;exitX=0.5;exitY=1;exitDx=0;exitDy=0;" parent="1" source="tzBEl5uezkZAkphJzdvv-5" target="tzBEl5uezkZAkphJzdvv-114" edge="1">
          <mxGeometry relative="1" as="geometry">
            <mxPoint x="410" y="70" as="sourcePoint" />
            <mxPoint x="424" y="-10" as="targetPoint" />
          </mxGeometry>
        </mxCell>
        <mxCell id="tzBEl5uezkZAkphJzdvv-114" value="Selecionar a opção de avaliação" style="swimlane;whiteSpace=wrap;html=1;startSize=30;" parent="1" vertex="1">
          <mxGeometry x="216.74" width="414.01" height="90" as="geometry" />
        </mxCell>
        <mxCell id="tzBEl5uezkZAkphJzdvv-119" value="d: exibir o botão de avaliar o centro de apoio&lt;div&gt;d+u: clicar no botão de avaliação&lt;/div&gt;" style="text;html=1;align=center;verticalAlign=middle;resizable=0;points=[];autosize=1;strokeColor=none;fillColor=none;" parent="tzBEl5uezkZAkphJzdvv-114" vertex="1">
          <mxGeometry x="62" y="40" width="260" height="40" as="geometry" />
        </mxCell>
        <mxCell id="tzBEl5uezkZAkphJzdvv-117" value="&lt;div style=&quot;&quot;&gt;precond: o usuário já está logado no sistema&lt;/div&gt;&lt;div style=&quot;&quot;&gt;&lt;span style=&quot;background-color: initial;&quot;&gt;u: selecionar um centro de apoio&lt;/span&gt;&lt;/div&gt;" style="text;html=1;align=center;verticalAlign=middle;whiteSpace=wrap;rounded=0;fillColor=#f5f5f5;fontColor=#333333;strokeColor=none;" parent="1" vertex="1">
          <mxGeometry x="294.23" y="-70" width="259.01" height="40" as="geometry" />
        </mxCell>
        <mxCell id="tzBEl5uezkZAkphJzdvv-120" value="" style="endArrow=classic;html=1;rounded=0;exitX=0.5;exitY=1;exitDx=0;exitDy=0;entryX=0.5;entryY=0;entryDx=0;entryDy=0;" parent="1" source="tzBEl5uezkZAkphJzdvv-114" target="tzBEl5uezkZAkphJzdvv-124" edge="1">
          <mxGeometry relative="1" as="geometry">
            <mxPoint x="424.37" y="90" as="sourcePoint" />
            <mxPoint x="424" y="120" as="targetPoint" />
          </mxGeometry>
        </mxCell>
        <mxCell id="tzBEl5uezkZAkphJzdvv-121" value="u: clicar em deixar uma avaliação" style="edgeLabel;resizable=0;html=1;;align=center;verticalAlign=middle;fontSize=12;" parent="tzBEl5uezkZAkphJzdvv-120" connectable="0" vertex="1">
          <mxGeometry relative="1" as="geometry" />
        </mxCell>
        <mxCell id="tzBEl5uezkZAkphJzdvv-124" value="" style="whiteSpace=wrap;html=1;fontStyle=1;startSize=23;fillColor=#000000;" parent="1" vertex="1">
          <mxGeometry x="406" y="140" width="38" height="37.5" as="geometry" />
        </mxCell>
        <mxCell id="tzBEl5uezkZAkphJzdvv-125" value="" style="edgeStyle=orthogonalEdgeStyle;rounded=0;orthogonalLoop=1;jettySize=auto;html=1;entryX=0.5;entryY=0;entryDx=0;entryDy=0;exitX=0.5;exitY=1;exitDx=0;exitDy=0;" parent="1" source="tzBEl5uezkZAkphJzdvv-124" target="tzBEl5uezkZAkphJzdvv-1" edge="1">
          <mxGeometry relative="1" as="geometry">
            <mxPoint x="461" y="168" as="sourcePoint" />
            <mxPoint x="460" y="220" as="targetPoint" />
          </mxGeometry>
        </mxCell>
        <mxCell id="tzBEl5uezkZAkphJzdvv-130" value="" style="endArrow=classic;html=1;rounded=0;dashed=1;dashPattern=8 8;exitX=1;exitY=0.5;exitDx=0;exitDy=0;entryX=0;entryY=0.75;entryDx=0;entryDy=0;" parent="1" target="tzBEl5uezkZAkphJzdvv-114" edge="1">
          <mxGeometry relative="1" as="geometry">
            <mxPoint x="140.00000000000023" y="305" as="sourcePoint" />
            <mxPoint x="176.74" y="60" as="targetPoint" />
            <Array as="points">
              <mxPoint x="240" y="305" />
              <mxPoint x="139.99999999999955" y="305" />
              <mxPoint x="139.99999999999955" y="190" />
              <mxPoint x="140" y="68" />
            </Array>
          </mxGeometry>
        </mxCell>
        <mxCell id="tzBEl5uezkZAkphJzdvv-131" value="u: cancelar o agendamento" style="edgeLabel;resizable=0;html=1;;align=center;verticalAlign=middle;fontSize=12;" parent="tzBEl5uezkZAkphJzdvv-130" connectable="0" vertex="1">
          <mxGeometry relative="1" as="geometry">
            <mxPoint x="-30" y="21" as="offset" />
          </mxGeometry>
        </mxCell>
        <mxCell id="tzBEl5uezkZAkphJzdvv-134" value="" style="endArrow=none;html=1;rounded=0;dashed=1;dashPattern=8 8;entryX=0;entryY=0.5;entryDx=0;entryDy=0;" parent="1" target="tzBEl5uezkZAkphJzdvv-19" edge="1">
          <mxGeometry width="50" height="50" relative="1" as="geometry">
            <mxPoint x="140" y="300" as="sourcePoint" />
            <mxPoint x="210" y="380" as="targetPoint" />
            <Array as="points">
              <mxPoint x="140" y="340" />
              <mxPoint x="140" y="540" />
            </Array>
          </mxGeometry>
        </mxCell>
      </root>
    </mxGraphModel>
  </diagram>
</mxfile>
